<svg xmlns="http://www.w3.org/2000/svg" xmlns:xlink="http://www.w3.org/1999/xlink" viewBox="0 0 65.43 66.37"><defs><style>.cls-1{}.cls-2{isolation:isolate;}.cls-3{clip-path:url(#clip-path);}.cls-4{}.cls-5{clip-path:url(#clip-path-2);}.cls-6{clip-path:url(#clip-path-3);}</style><clipPath id="clip-path" transform="translate(-0.88 -2.64)"><polygon class="cls-1" points="0 58.56 0.11 19.44 33.56 0 33.45 39.13 0 58.56"/></clipPath><clipPath id="clip-path-2" transform="translate(-0.88 -2.64)"><polygon class="cls-1" points="33.45 39.13 33.56 0 67.22 19.44 67.11 58.56 33.45 39.13"/></clipPath><clipPath id="clip-path-3" transform="translate(-0.88 -2.64)"><polygon class="cls-1" points="67.11 58.56 33.67 78 0 58.56 33.45 39.13 67.11 58.56"/></clipPath></defs><title>gb104</title><g id="Warstwa_2" data-name="Warstwa 2"><g id="Warstwa_1-2" data-name="Warstwa 1"><g class="cls-2"><g class="cls-2"><g class="cls-3"><path class="cls-4" d="M30.63,2.92,26.35,5.41,20,9.1l-6.34,3.68L7.32,16.47,3,19A4.56,4.56,0,0,0,1,22.53l0,5,0,7.34,0,7.34,0,7.33v5c0,1.32.91,1.85,2.05,1.19l4.28-2.5,6.35-3.68,6.34-3.69,6.34-3.69,4.29-2.49A4.56,4.56,0,0,0,32.59,36l0-5,0-7.33v-5c0-1.32-.91-1.85-2.05-1.19l-4.28,2.5L20,23.77l-4.29,2.49a4.62,4.62,0,0,0-2.06,3.57v2.59c0,1.31.91,1.84,2,1.18l4.29-2.49,4.29-2.49c1.13-.66,2.05-.13,2.05,1.18v2.58A4.59,4.59,0,0,1,24.21,36l-4.29,2.49-6.34,3.69L9.29,44.62c-1.14.66-2,.13-2-1.18l0-5,0-7.34v-5a4.59,4.59,0,0,1,2.06-3.57l4.29-2.49L20,16.44l6.35-3.69,4.28-2.49a4.6,4.6,0,0,0,2.07-3.57V4.1c0-1.31-.91-1.84-2.05-1.18" transform="translate(-0.88 -2.64)"/></g></g><g class="cls-2"><g class="cls-5"><path class="cls-4" d="M42.8,36a4.49,4.49,0,0,1-2.06-3.57V29.8c0-1.31.94-1.84,2.08-1.18l4.31,2.49,6.39,3.69,4.32,2.49a4.56,4.56,0,0,1,2.06,3.57v2.58c0,1.31-.93,1.84-2.08,1.18L53.5,42.13l-6.39-3.68L42.8,36m0-14.67a4.53,4.53,0,0,1-2.06-3.57V15.13c0-1.32.94-1.85,2.08-1.19l4.32,2.5,4.31,2.49a4.53,4.53,0,0,1,2.06,3.57v2.58c0,1.32-.94,1.84-2.08,1.18l-4.31-2.49-4.32-2.49m15.06-6-4.32-2.49L47.2,9.1,40.81,5.41,36.5,2.92c-1.15-.66-2.08-.13-2.08,1.18v5l0,7.34,0,7.34,0,7.33v5a4.55,4.55,0,0,0,2.06,3.57l4.32,2.5,6.38,3.68,6.39,3.69,6.38,3.68,4.32,2.5c1.14.66,2.07.13,2.07-1.19l0-5,0-7.33v-5a4.53,4.53,0,0,0-2.06-3.57L62,32.34a4.56,4.56,0,0,1-2.06-3.57l0-5v-5a4.56,4.56,0,0,0-2.06-3.57" transform="translate(-0.88 -2.64)"/></g></g><g class="cls-2"><g class="cls-6"><path class="cls-4" d="M29,59.62a1.12,1.12,0,0,1,0-2.12l2.7-1.56a4,4,0,0,1,3.65,0l2.71,1.56c1,.59,1,1.54,0,2.12l-2.7,1.57a4,4,0,0,1-3.66,0L29,59.62M50.81,57.5l-4.55-2.62-6.38-3.69-4.55-2.62a4,4,0,0,0-3.66,0l-4.52,2.62-6.34,3.69L16.29,57.5a1.12,1.12,0,0,0,0,2.12l4.55,2.63,6.38,3.69,4.55,2.62a4,4,0,0,0,3.67,0L40,65.94l6.35-3.69,4.52-2.63c1-.58,1-1.53,0-2.12" transform="translate(-0.88 -2.64)"/></g></g></g></g></g></svg>